<svg width="167.744" height="41.191" viewBox="0 0 167.744 41.191" xmlns="http://www.w3.org/2000/svg" xmlns:xlink="http://www.w3.org/1999/xlink" id="_0._LOGO_Flicker" overflow="hidden"><defs><clipPath id="clip-path"><rect x="0" y="0" width="167.744" height="41.192" id="Rectangle_2440" fill="#FFFFFF"/></clipPath></defs><g id="Group_9025" clip-path="url(#clip-path)"><path d="M10.3 97.826C12.7308 97.797 15.0594 98.8026 16.705 100.592 20.2474 104.438 20.2474 110.358 16.705 114.204 15.0596 115.994 12.7309 116.999 10.3 116.97 7.78786 117.094 5.38608 115.928 3.931 113.876L3.931 116.496 0 116.496 0 91.02 3.931 91.02 3.931 100.883C5.40541 98.8585 7.79818 97.71 10.3 97.826M5.568 111.583C6.65428 112.673 8.14272 113.266 9.681 113.221 11.2193 113.266 12.7077 112.673 13.794 111.583 14.8856 110.468 15.4769 108.958 15.432 107.398 15.4814 105.848 14.8887 104.347 13.794 103.249 12.7181 102.139 11.226 101.532 9.681 101.575 8.136 101.532 6.64386 102.139 5.568 103.249 4.47308 104.348 3.88069 105.85 3.931 107.4 3.89499 108.958 4.48498 110.465 5.569 111.585" id="Path_79017" fill="#FFFFFF" transform="matrix(1 0 0 1 0 -82.583)"/><path d="M241.474 166.343 241.474 169.4C242.469 167.143 244.335 166.015 247.074 166.015L247.074 170.273C245.675 170.154 244.281 170.541 243.144 171.365 241.951 172.334 241.323 173.835 241.47 175.365L241.47 184.536 237.539 184.536 237.539 166.336Z" id="Path_79018" fill="#FFFFFF" transform="translate(-215.525 -150.627)"/><path d="M357.421 167.5 357.421 164.916 361.352 164.916 361.352 183.116 357.421 183.116 357.421 180.496C355.966 182.547 353.564 183.714 351.052 183.59 348.621 183.619 346.292 182.614 344.647 180.824 341.105 176.978 341.105 171.058 344.647 167.212 346.292 165.422 348.621 164.417 351.052 164.446 353.556 164.319 355.954 165.47 357.421 167.503M347.558 178.203C349.865 180.387 353.476 180.387 355.783 178.203 356.875 177.088 357.466 175.578 357.421 174.018 357.471 172.468 356.878 170.967 355.783 169.869 353.496 167.637 349.845 167.637 347.558 169.869 346.463 170.967 345.871 172.468 345.92 174.018 345.884 175.576 346.474 177.083 347.558 178.203" id="Path_79019" fill="#FFFFFF" transform="translate(-310.291 -149.201)"/><path d="M588.9 90.21C588.443 90.6834 587.811 90.9469 587.153 90.938 585.78 90.9519 584.656 89.8502 584.642 88.4772 584.642 88.4605 584.642 88.4437 584.642 88.427 584.642 87.0402 585.766 85.916 587.153 85.916 588.54 85.916 589.664 87.0402 589.664 88.427 589.666 89.1013 589.39 89.7465 588.9 90.21M589.118 111.865 585.187 111.865 585.187 93.665 589.118 93.665Z" id="Path_79020" fill="#FFFFFF" transform="translate(-530.446 -77.951)"/><path d="M681.762 164.444C683.665 164.36 685.513 165.096 686.839 166.464 688.171 167.968 688.857 169.935 688.75 171.941L688.75 183.114 684.819 183.114 684.819 172.342C684.895 171.194 684.501 170.064 683.727 169.212 682.924 168.455 681.845 168.06 680.743 168.12 679.476 168.054 678.242 168.538 677.358 169.448 676.461 170.546 676.018 171.946 676.121 173.36L676.121 183.114 672.19 183.114 672.19 164.914 676.121 164.914 676.121 167.243C677.359 165.361 679.514 164.292 681.762 164.443" id="Path_79021" fill="#FFFFFF" transform="translate(-609.884 -149.201)"/><path d="M885.187 183.587C880.003 183.709 875.702 179.605 875.58 174.421 875.577 174.286 875.576 174.15 875.579 174.015 875.511 171.467 876.498 169.004 878.308 167.209 880.121 165.377 882.611 164.376 885.187 164.443 886.886 164.424 888.558 164.864 890.027 165.717 891.43 166.512 892.569 167.702 893.302 169.138L889.917 171.103C889.516 170.243 888.862 169.525 888.043 169.047 887.165 168.539 886.164 168.281 885.15 168.301 883.635 168.266 882.173 168.859 881.11 169.939 878.975 172.237 878.975 175.793 881.11 178.091 882.173 179.171 883.635 179.764 885.15 179.729 886.164 179.743 887.162 179.485 888.043 178.983 888.883 178.508 889.561 177.792 889.99 176.927L893.375 178.856C892.605 180.306 891.437 181.505 890.008 182.314 888.543 183.162 886.878 183.602 885.186 183.588" id="Path_79022" fill="#FFFFFF" transform="translate(-794.421 -149.201)"/><path d="M1097.96 97.825C1099.87 97.7413 1101.71 98.4766 1103.04 99.845 1104.37 101.349 1105.06 103.316 1104.95 105.322L1104.95 116.5 1101.02 116.5 1101.02 105.723C1101.1 104.575 1100.7 103.445 1099.93 102.593 1099.12 101.836 1098.05 101.441 1096.94 101.501 1095.68 101.435 1094.44 101.919 1093.56 102.829 1092.66 103.927 1092.22 105.327 1092.32 106.741L1092.32 116.5 1088.39 116.5 1088.39 91.019 1092.32 91.019 1092.32 100.627C1093.56 98.7451 1095.71 97.6754 1097.96 97.827" id="Path_79023" fill="#FFFFFF" transform="translate(-987.506 -82.582)"/><path d="M1301.14 90.21C1300.69 90.6835 1300.05 90.947 1299.4 90.938 1298.02 90.9519 1296.9 89.8502 1296.88 88.4772 1296.88 88.4605 1296.88 88.4437 1296.88 88.427 1296.88 87.0402 1298.01 85.916 1299.4 85.916 1300.78 85.916 1301.91 87.0402 1301.91 88.427 1301.91 89.1013 1301.63 89.7466 1301.14 90.21M1301.36 111.865 1297.43 111.865 1297.43 93.665 1301.36 93.665Z" id="Path_79024" fill="#FFFFFF" transform="translate(-1176.67 -77.951)"/><path d="M1394.74 164.444C1397.17 164.426 1399.5 165.444 1401.14 167.244 1404.68 171.076 1404.68 176.987 1401.14 180.819 1399.5 182.609 1397.17 183.614 1394.74 183.585 1392.24 183.701 1389.84 182.553 1388.37 180.528L1388.37 190.391 1384.44 190.391 1384.44 164.917 1388.37 164.917 1388.37 167.537C1389.82 165.486 1392.23 164.319 1394.74 164.443M1390.01 178.2C1392.31 180.384 1395.93 180.384 1398.23 178.2 1399.32 177.085 1399.91 175.575 1399.87 174.015 1399.92 172.465 1399.33 170.964 1398.23 169.866 1395.94 167.634 1392.29 167.634 1390.01 169.866 1388.91 170.964 1388.32 172.465 1388.37 174.015 1388.33 175.573 1388.92 177.08 1390.01 178.2" id="Path_79025" fill="#FFFFFF" transform="translate(-1256.11 -149.201)"/><path d="M1605.85 341.758 1607.76 341.758 1607.76 342.247 1607.06 342.247 1607.06 344.353 1606.54 344.353 1606.54 342.247 1605.84 342.247Z" id="Path_79026" fill="#FFFFFF" transform="translate(-1457 -310.08)"/><path d="M1633.54 341.758 1634.06 341.758 1634.06 344.358 1633.56 344.358 1633.56 342.67 1632.82 343.87 1632.77 343.87 1632.04 342.67 1632.04 344.349 1631.52 344.349 1631.52 341.749 1632.05 341.749 1632.8 342.976Z" id="Path_79027" fill="#FFFFFF" transform="translate(-1480.3 -310.08)"/><g id="Group_9110"><path d="M1649.16 9.62 1643.34 10.129C1642.7 10.1873 1642.07 9.89629 1641.71 9.367L1638.35 4.578C1637.83 3.79156 1636.8 3.52413 1635.95 3.956 1635.09 4.43498 1634.77 5.52536 1635.25 6.39143 1635.25 6.39195 1635.25 6.39248 1635.25 6.393 1635.28 6.44893 1635.32 6.50303 1635.35 6.555L1638.77 11.425C1639.13 11.9499 1639.19 12.6313 1638.92 13.212L1636.4 18.607C1635.98 19.5127 1636.38 20.5867 1637.28 21.0057 1637.29 21.0062 1637.29 21.0066 1637.29 21.007 1637.34 21.03 1637.39 21.052 1637.44 21.071 1638.35 21.3496 1639.32 20.9059 1639.71 20.038L1642.18 14.738C1642.45 14.1553 1643.01 13.7618 1643.65 13.705L1649.58 13.189C1650.57 13.1048 1651.3 12.2367 1651.21 11.25 1651.21 11.1852 1651.2 11.1208 1651.19 11.057 1650.97 10.1352 1650.1 9.51885 1649.16 9.62Z" id="Path_79028" fill="#002E72" transform="translate(-1483.47 -3.394)"/><path d="M1723.1 128.024 1723.1 128.024C1723.91 127.45 1725.02 127.637 1725.6 128.442L1726.67 129.936C1727.25 130.741 1727.06 131.862 1726.26 132.44 1725.45 133.018 1724.33 132.834 1723.75 132.03 1723.75 132.027 1723.75 132.024 1723.75 132.021L1722.68 130.527C1722.11 129.721 1722.29 128.603 1723.1 128.027" id="Path_79029" fill="#002E72" transform="translate(-1562.7 -115.854)"/><path d="M1711.25 2.707 1712.02 1.041C1712.42 0.134237 1713.48-0.277121 1714.38 0.122206 1715.29 0.521534 1715.7 1.58033 1715.3 2.48709 1715.29 2.50791 1715.29 2.52855 1715.28 2.549L1714.5 4.215C1714.1 5.12176 1713.04 5.53312 1712.14 5.13379 1711.23 4.73447 1710.82 3.67567 1711.22 2.76891 1711.23 2.74809 1711.24 2.72745 1711.25 2.707" id="Path_79030" fill="#002E72" transform="translate(-1552.48 0)"/><path d="M1601.42 82.394 1603.24 82.237C1604.23 82.1522 1605.1 82.8838 1605.19 83.871 1605.27 84.8582 1604.54 85.7272 1603.55 85.812L1601.72 85.969C1600.74 86.0535 1599.87 85.3217 1599.78 84.3345 1599.7 83.3473 1600.43 82.4785 1601.42 82.394" id="Path_79031" fill="#002E72" transform="translate(-1451.49 -74.608)"/></g><g id="Group_9028"><path d="M1649.16 9.62 1643.34 10.129C1642.7 10.1873 1642.07 9.89629 1641.71 9.367L1638.35 4.578C1637.83 3.79156 1636.8 3.52413 1635.95 3.956 1635.09 4.43498 1634.77 5.52536 1635.25 6.39143 1635.25 6.39195 1635.25 6.39248 1635.25 6.393 1635.28 6.44893 1635.32 6.50303 1635.35 6.555L1638.77 11.425C1639.13 11.9499 1639.19 12.6313 1638.92 13.212L1636.4 18.607C1635.98 19.5127 1636.38 20.5867 1637.28 21.0057 1637.29 21.0062 1637.29 21.0066 1637.29 21.007 1637.34 21.03 1637.39 21.052 1637.44 21.071 1638.35 21.3496 1639.32 20.9059 1639.71 20.038L1642.18 14.738C1642.45 14.1553 1643.01 13.7618 1643.65 13.705L1649.58 13.189C1650.57 13.1048 1651.3 12.2367 1651.21 11.25 1651.21 11.1852 1651.2 11.1208 1651.19 11.057 1650.97 10.1352 1650.1 9.51885 1649.16 9.62Z" id="Path_79028-2" fill="#0061ED" transform="translate(-1483.47 -3.394)"/><path d="M1723.1 128.024 1723.1 128.024C1723.91 127.45 1725.02 127.637 1725.6 128.442L1726.67 129.936C1727.25 130.741 1727.06 131.862 1726.26 132.44 1725.45 133.018 1724.33 132.834 1723.75 132.03 1723.75 132.027 1723.75 132.024 1723.75 132.021L1722.68 130.527C1722.11 129.721 1722.29 128.603 1723.1 128.027" id="Path_79029-2" fill="#0061ED" transform="translate(-1562.7 -115.854)"/><path d="M1711.25 2.707 1712.02 1.041C1712.42 0.134237 1713.48-0.277121 1714.38 0.122206 1715.29 0.521534 1715.7 1.58033 1715.3 2.48709 1715.29 2.50791 1715.29 2.52855 1715.28 2.549L1714.5 4.215C1714.1 5.12176 1713.04 5.53312 1712.14 5.13379 1711.23 4.73447 1710.82 3.67567 1711.22 2.76891 1711.23 2.74809 1711.24 2.72745 1711.25 2.707" id="Path_79030-2" fill="#0061ED" transform="translate(-1552.48 0)"/><path d="M1601.42 82.394 1603.24 82.237C1604.23 82.1522 1605.1 82.8838 1605.19 83.871 1605.27 84.8582 1604.54 85.7272 1603.55 85.812L1601.72 85.969C1600.74 86.0535 1599.87 85.3217 1599.78 84.3345 1599.7 83.3473 1600.43 82.4785 1601.42 82.394" id="Path_79031-2" fill="#0061ED" transform="translate(-1451.49 -74.608)"/></g></g></svg>